<?xml version="1.0" encoding="UTF-8"?>
<svg version="1.1" xmlns="http://www.w3.org/2000/svg" width="200" height="50">
<path d="M0 0 C-0.76086957 7.48188406 -0.76086957 7.48188406 -2.125 10.4375 C-3.75466584 15.21009281 -2.56399881 20.30800357 -1 25 C-0.97421875 23.96359375 -0.9484375 22.9271875 -0.921875 21.859375 C-0.86558049 20.48954199 -0.80823345 19.11975195 -0.75 17.75 C-0.73582031 17.06808594 -0.72164062 16.38617187 -0.70703125 15.68359375 C-0.54447977 12.33503322 -0.22553217 10.30799547 1.7734375 7.578125 C5.33529815 5.05357815 8.69059185 4.65018621 13 5 C15.43249336 6.06514475 16.94444321 7.26068271 19 9 C19.33 6.03 19.66 3.06 20 0 C22.97 0 25.94 0 29 0 C29.495 5.94 29.495 5.94 30 12 C30.99 10.35 31.98 8.7 33 7 C36.42176689 4.43367483 39.84640421 4.63564949 44 5 C48.6 7.2 48.6 7.2 50 10 C50.28978025 13.09725123 50.27782438 16.20325265 50.3125 19.3125 C50.35600586 20.59543945 50.35600586 20.59543945 50.40039062 21.90429688 C50.44208951 26.04531708 50.3491596 28.40220807 48.22265625 32.04296875 C45.35971949 34.56376193 43.72477855 34.89553685 40.03125 35.13671875 C36.77861337 34.91779128 34.65450692 33.83287382 32 32 C30.625 29.8125 30.625 29.8125 30 28 C29.34 29.98 28.68 31.96 28 34 C25.69 34 23.38 34 21 34 C20.34 32.68 19.68 31.36 19 30 C18.484375 30.639375 17.96875 31.27875 17.4375 31.9375 C14.22717114 34.65393211 12.1778028 34.92796892 8 35 C4.5625 33.5625 4.5625 33.5625 2 32 C1.34 32.66 0.68 33.32 0 34 C-7.30434783 34.46376812 -7.30434783 34.46376812 -11 32 C-11.33 32.66 -11.66 33.32 -12 34 C-18.15234375 34.09765625 -18.15234375 34.09765625 -20 34 C-22.62527519 31.37472481 -21.18561695 23.78260023 -21.1875 20.25 C-21.19974609 19.05632813 -21.21199219 17.86265625 -21.22460938 16.6328125 C-21.22654297 15.48039062 -21.22847656 14.32796875 -21.23046875 13.140625 C-21.23457764 12.08391602 -21.23868652 11.02720703 -21.24291992 9.93847656 C-20.99332533 6.91925994 -20.27256968 4.73238394 -19 2 C-16.69 2.33 -14.38 2.66 -12 3 C-11.67 3.99 -11.34 4.98 -11 6 C-10.731875 5.030625 -10.46375 4.06125 -10.1875 3.0625 C-9.5996875 1.5465625 -9.5996875 1.5465625 -9 0 C-5.52176885 -1.15941038 -3.54104422 -0.70820884 0 0 Z M40 13 C40 17.62 40 22.24 40 27 C40.33 27 40.66 27 41 27 C41 22.38 41 17.76 41 13 C40.67 13 40.34 13 40 13 Z M19 20 C20 22 20 22 20 22 Z M10 21 C9.67 22.65 9.34 24.3 9 26 C9.99 26.495 9.99 26.495 11 27 C11 25.02 11 23.04 11 21 C10.67 21 10.34 21 10 21 Z M0 29 C1 31 1 31 1 31 Z " fill="#FCC608" transform="translate(23,7)"/>
<path d="M0 0 C2.97 0 5.94 0 9 0 C9.66 1.98 10.32 3.96 11 6 C13.64 6 16.28 6 19 6 C18.76603516 6.8353125 18.76603516 6.8353125 18.52734375 7.6875 C17.14655444 13.10092563 17.05808262 17.49028971 18 23 C18.22370165 24.81066745 18.43172926 26.62333202 18.625 28.4375 C18.72039062 29.28183594 18.81578125 30.12617187 18.9140625 30.99609375 C18.94242188 31.65738281 18.97078125 32.31867187 19 33 C18 34 18 34 14.18359375 34.09765625 C12.60153318 34.09098089 11.01948841 34.07901875 9.4375 34.0625 C8.63119141 34.05798828 7.82488281 34.05347656 6.99414062 34.04882812 C4.99606244 34.03700518 2.99802217 34.01906914 1 34 C0.34 32.35 -0.32 30.7 -1 29 C-1.680625 29.804375 -2.36125 30.60875 -3.0625 31.4375 C-6.57972147 34.50571448 -8.36810539 35 -13 35 C-16.08678399 33.89341706 -18.22291594 33.09426122 -20.1484375 30.3828125 C-21.36865098 26.96845367 -21.32881559 23.64213953 -21.3125 20.0625 C-21.32861328 19.35931641 -21.34472656 18.65613281 -21.36132812 17.93164062 C-21.36555049 13.42638204 -20.7458238 10.58913578 -18 7 C-14.57823311 4.43367483 -11.15359579 4.63564949 -7 5 C-2.4 7.2 -2.4 7.2 -1 10 C-0.67 6.7 -0.34 3.4 0 0 Z M-11 13 C-12.38226016 15.76452033 -12.09525387 18.0461363 -12.0625 21.125 C-12.05347656 22.22070312 -12.04445312 23.31640625 -12.03515625 24.4453125 C-12.02355469 25.28835937 -12.01195312 26.13140625 -12 27 C-11.34 27 -10.68 27 -10 27 C-10 22.38 -10 17.76 -10 13 C-10.33 13 -10.66 13 -11 13 Z " fill="#F2C427" transform="translate(147,7)"/>
<path d="M0 0 C2.30285812 0.29457439 2.30285812 0.29457439 5.34375 -0.51171875 C8.09375 -0.82421875 8.09375 -0.82421875 10.23901367 0.8059082 C12.51572104 3.71495103 12.57401117 5.12688136 12.51953125 8.78125 C12.51115234 9.84666016 12.50277344 10.91207031 12.49414062 12.00976562 C12.45063477 13.66975586 12.45063477 13.66975586 12.40625 15.36328125 C12.39658203 16.48154297 12.38691406 17.59980469 12.37695312 18.75195312 C12.26166102 27.00787023 12.26166102 27.00787023 11.09375 28.17578125 C5.56433824 28.41107537 5.56433824 28.41107537 3.09375 27.17578125 C2.6796875 24.890625 2.6796875 24.890625 2.46875 22.11328125 C2.39398438 21.19417969 2.31921875 20.27507813 2.2421875 19.328125 C2.19320312 18.61785156 2.14421875 17.90757813 2.09375 17.17578125 C2.00287109 18.24119141 2.00287109 18.24119141 1.91015625 19.328125 C1.82636719 20.24722656 1.74257812 21.16632812 1.65625 22.11328125 C1.57503906 23.02980469 1.49382812 23.94632813 1.41015625 24.890625 C1.09375 27.17578125 1.09375 27.17578125 0.09375 28.17578125 C-3.93785191 28.43871181 -5.46517734 28.46982969 -8.90625 26.17578125 C-8.90625 26.83578125 -8.90625 27.49578125 -8.90625 28.17578125 C-15.05859375 28.2734375 -15.05859375 28.2734375 -16.90625 28.17578125 C-17.90625 27.17578125 -17.90625 27.17578125 -18.01977539 24.58374023 C-18.01453857 23.45782471 -18.00930176 22.33190918 -18.00390625 21.171875 C-18.00068359 19.95693359 -17.99746094 18.74199219 -17.99414062 17.49023438 C-17.98576172 16.21083984 -17.97738281 14.93144531 -17.96875 13.61328125 C-17.96423828 12.33001953 -17.95972656 11.04675781 -17.95507812 9.72460938 C-17.94324545 6.54162103 -17.92676068 3.35872363 -17.90625 0.17578125 C-16.85824219 0.19318359 -16.85824219 0.19318359 -15.7890625 0.2109375 C-14.87898438 0.21996094 -13.96890625 0.22898437 -13.03125 0.23828125 C-11.67386719 0.25568359 -11.67386719 0.25568359 -10.2890625 0.2734375 C-0.7747507 -0.11649331 -0.7747507 -0.11649331 0 0 Z M-7.90625 12.17578125 C-9.22854189 14.82036504 -9.00302194 16.85339426 -8.96875 19.80078125 C-8.95972656 20.80367187 -8.95070313 21.8065625 -8.94140625 22.83984375 C-8.92980469 23.61070313 -8.91820313 24.3815625 -8.90625 25.17578125 C-8.24625 25.17578125 -7.58625 25.17578125 -6.90625 25.17578125 C-6.90625 20.88578125 -6.90625 16.59578125 -6.90625 12.17578125 C-7.23625 12.17578125 -7.56625 12.17578125 -7.90625 12.17578125 Z " fill="#F6C51E" transform="translate(91.90625,12.82421875)"/>
<path d="M0 0 C0.95648438 -0.02578125 1.91296875 -0.0515625 2.8984375 -0.078125 C6.05928645 0.3022637 7.36491733 1.04151739 9.625 3.25 C11.09910198 7.67230595 10.84995829 11.99228417 10.875 16.625 C10.895625 17.57117188 10.91625 18.51734375 10.9375 19.4921875 C10.98642083 28.20009538 10.98642083 28.20009538 7.625 32.25 C5.32379842 34.22245849 3.7288877 35.21481633 0.6640625 35.3125 C-2.47553401 35.0323873 -4.99522459 34.42089894 -7.875 33.125 C-10.17748886 30.24688893 -9.69860434 27.80964777 -9.375 24.25 C-9.045 23.59 -8.715 22.93 -8.375 22.25 C-8.67792969 21.65960937 -8.98085937 21.06921875 -9.29296875 20.4609375 C-11.31180377 16.33580891 -10.80929642 11.73556901 -10.375 7.25 C-8.03117478 1.07082443 -6.39956089 0.102942 0 0 Z M-0.375 6.25 C-0.375 9.22 -0.375 12.19 -0.375 15.25 C-0.045 15.25 0.285 15.25 0.625 15.25 C0.625 12.28 0.625 9.31 0.625 6.25 C0.295 6.25 -0.035 6.25 -0.375 6.25 Z M-0.375 22.25 C-0.705 22.91 -1.035 23.57 -1.375 24.25 C-0.48336423 26.36683841 -0.48336423 26.36683841 0.625 28.25 C1.3064823 26.35820797 1.3064823 26.35820797 1.625 24.25 C0.965 23.59 0.305 22.93 -0.375 22.25 Z " fill="#F9C718" transform="translate(187.375,6.75)"/>
<path d="M0 0 C2.97283733 4.459256 2.36827788 8.69088435 2.375 13.9375 C2.39949219 14.93974609 2.42398438 15.94199219 2.44921875 16.97460938 C2.4785413 24.3003605 2.4785413 24.3003605 0.1484375 27.70703125 C-2 29 -2 29 -4.75 28.75 C-5.4925 28.5025 -6.235 28.255 -7 28 C-7.66 29.32 -8.32 30.64 -9 32 C-15.15234375 32.09765625 -15.15234375 32.09765625 -17 32 C-18 31 -18 31 -18.11352539 28.04077148 C-18.10828857 26.74727783 -18.10305176 25.45378418 -18.09765625 24.12109375 C-18.0962413 23.4344313 -18.09482635 22.74776886 -18.09336853 22.04029846 C-18.08775479 19.83932199 -18.07520007 17.63844591 -18.0625 15.4375 C-18.05748676 13.94856917 -18.05292355 12.45963676 -18.04882812 10.97070312 C-18.03778093 7.31376925 -18.02050713 3.65689442 -18 0 C-17.31292969 0.01160156 -16.62585938 0.02320313 -15.91796875 0.03515625 C-14.56638672 0.04869141 -14.56638672 0.04869141 -13.1875 0.0625 C-11.84751953 0.07990234 -11.84751953 0.07990234 -10.48046875 0.09765625 C-0.90750436 -0.27923211 -0.90750436 -0.27923211 0 0 Z M-8 7 C-8.95261487 11.76307437 -9.08333357 16.1666528 -9 21 C-8.34 21 -7.68 21 -7 21 C-7 16.38 -7 11.76 -7 7 C-7.33 7 -7.66 7 -8 7 Z " fill="#FDC704" transform="translate(123,13)"/>
<path d="M0 0 C2.31 0 4.62 0 7 0 C7.22786458 2.05078125 7.45572917 4.1015625 7.68359375 6.15234375 C7.81886614 8.01140229 7.81886614 8.01140229 9 9 C9.33 8.34 9.66 7.68 10 7 C11.65 7 13.3 7 15 7 C15 8.98 15 10.96 15 13 C14.34 13 13.68 13 13 13 C13 15.31 13 17.62 13 20 C13.66 20 14.32 20 15 20 C15.66 23.63 16.32 27.26 17 31 C14.36 31 11.72 31 9 31 C8.67 28.69 8.34 26.38 8 24 C7.67 26.31 7.34 28.62 7 31 C5.02 31 3.04 31 1 31 C-0.11911712 27.64264863 -0.11365586 25.11794614 -0.09765625 21.58203125 C-0.09443359 20.32841797 -0.09121094 19.07480469 -0.08789062 17.78320312 C-0.07951172 16.47287109 -0.07113281 15.16253906 -0.0625 13.8125 C-0.05748317 12.47721519 -0.05292059 11.14192859 -0.04882812 9.80664062 C-0.03702695 6.53771527 -0.02056297 3.26888009 0 0 Z " fill="#FCC704" transform="translate(148,8)"/>
<path d="M0 0 C2.31 0 4.62 0 7 0 C7 10.23 7 20.46 7 31 C5.02 31 3.04 31 1 31 C-0.06888524 27.52334905 -0.11475767 24.32862522 -0.09765625 20.703125 C-0.09443359 19.49785156 -0.09121094 18.29257812 -0.08789062 17.05078125 C-0.07951172 15.79652344 -0.07113281 14.54226562 -0.0625 13.25 C-0.05798828 11.98027344 -0.05347656 10.71054687 -0.04882812 9.40234375 C-0.03704556 6.26818164 -0.02059416 3.13411459 0 0 Z " fill="#FBC606" transform="translate(44,8)"/>
<path d="M0 0 C2.97283733 4.459256 2.36827788 8.69088435 2.375 13.9375 C2.39949219 14.93974609 2.42398438 15.94199219 2.44921875 16.97460938 C2.4785413 24.3003605 2.4785413 24.3003605 0.1484375 27.70703125 C-2 29 -2 29 -4.75 28.75 C-5.4925 28.5025 -6.235 28.255 -7 28 C-7 27.67 -7 27.34 -7 27 C-3.535 26.505 -3.535 26.505 0 26 C-0.495 14.12 -0.495 14.12 -1 2 C-3.64 2.33 -6.28 2.66 -9 3 C-11.31 2.67 -13.62 2.34 -16 2 C-16 11.24 -16 20.48 -16 30 C-14.68 30 -13.36 30 -12 30 C-11.34 28.35 -10.68 26.7 -10 25 C-9.34 25 -8.68 25 -8 25 C-8.33 27.31 -8.66 29.62 -9 32 C-15.15234375 32.09765625 -15.15234375 32.09765625 -17 32 C-18 31 -18 31 -18.11352539 28.04077148 C-18.10828857 26.74727783 -18.10305176 25.45378418 -18.09765625 24.12109375 C-18.0962413 23.4344313 -18.09482635 22.74776886 -18.09336853 22.04029846 C-18.08775479 19.83932199 -18.07520007 17.63844591 -18.0625 15.4375 C-18.05748676 13.94856917 -18.05292355 12.45963676 -18.04882812 10.97070312 C-18.03778093 7.31376925 -18.02050713 3.65689442 -18 0 C-17.31292969 0.01160156 -16.62585938 0.02320313 -15.91796875 0.03515625 C-14.56638672 0.04869141 -14.56638672 0.04869141 -13.1875 0.0625 C-11.84751953 0.07990234 -11.84751953 0.07990234 -10.48046875 0.09765625 C-0.90750436 -0.27923211 -0.90750436 -0.27923211 0 0 Z " fill="#EEC737" transform="translate(123,13)"/>
<path d="M0 0 C1.875 0.6875 1.875 0.6875 2.875 1.6875 C2.96213831 3.39522358 2.98200007 5.10648649 2.97265625 6.81640625 C2.96943359 7.85087891 2.96621094 8.88535156 2.96289062 9.95117188 C2.95451172 11.03978516 2.94613281 12.12839844 2.9375 13.25 C2.93298828 14.34248047 2.92847656 15.43496094 2.92382812 16.56054688 C2.91199826 19.26958495 2.89551543 21.97851599 2.875 24.6875 C0.565 24.6875 -1.745 24.6875 -4.125 24.6875 C-4.125 18.0875 -4.125 11.4875 -4.125 4.6875 C-4.785 4.6875 -5.445 4.6875 -6.125 4.6875 C-4.98396533 1.26439599 -3.8799199 -0.57057646 0 0 Z " fill="#FCC606" transform="translate(100.125,14.3125)"/>
<path d="M0 0 C2.97 0 5.94 0 9 0 C9.9191789 7.45632433 10.00818204 14.56650141 9.625 22.0625 C9.58117187 23.10599609 9.53734375 24.14949219 9.4921875 25.22460938 C9.13375235 32.86624765 9.13375235 32.86624765 8 34 C4.5 34.125 4.5 34.125 1 34 C-0.58272601 32.41727399 -0.34735747 30.61965997 -0.5625 28.4375 C-0.64628906 27.61121094 -0.73007812 26.78492187 -0.81640625 25.93359375 C-0.87699219 25.29550781 -0.93757813 24.65742188 -1 24 C-3.91634129 23.7497843 -3.91634129 23.7497843 -7 24 C-7.66 24.99 -8.32 25.98 -9 27 C-9.33 25.68 -9.66 24.36 -10 23 C-10 24.32 -10 25.64 -10 27 C-10.99 27 -11.98 27 -13 27 C-13 24.69 -13 22.38 -13 20 C-8.1939291 17.5241453 -7.04750931 18.1360701 -1 19 C-0.67 12.73 -0.34 6.46 0 0 Z M1 1 C0.97097832 5.41665288 0.95319392 9.83328123 0.9375 14.25 C0.92912109 15.50425781 0.92074219 16.75851563 0.91210938 18.05078125 C0.90888672 19.25605469 0.90566406 20.46132813 0.90234375 21.703125 C0.89710693 22.81333008 0.89187012 23.92353516 0.88647461 25.06738281 C0.98341507 27.57157379 1.26769724 29.6181156 2 32 C3.98 32 5.96 32 8 32 C8 21.77 8 11.54 8 1 C5.69 1 3.38 1 1 1 Z M-1 20 C0 22 0 22 0 22 Z " fill="#FAC91F" transform="translate(43,7)"/>
<path d="M0 0 C2.64 0 5.28 0 8 0 C7.9278125 0.79921875 7.855625 1.5984375 7.78125 2.421875 C7.14334468 9.97042127 6.8771805 17.4261308 7 25 C4.69 25 2.38 25 0 25 C0 16.75 0 8.5 0 0 Z " fill="#FDC604" transform="translate(75,14)"/>
<path d="M0 0 C-0.33 2.64 -0.66 5.28 -1 8 C-1.33 8 -1.66 8 -2 8 C-2 5.69 -2 3.38 -2 1 C-3.96485945 1.20655634 -3.96485945 1.20655634 -6 2 C-7.0624155 3.71248796 -7.0624155 3.71248796 -7.625 5.8125 C-7.86089844 6.53050781 -8.09679688 7.24851562 -8.33984375 7.98828125 C-8.66662109 8.98408203 -8.66662109 8.98408203 -9 10 C-9.63960014 11.3465266 -10.289999 12.68922893 -11 14 C-11.66 14 -12.32 14 -13 14 C-13.33 12.35 -13.66 10.7 -14 9 C-15.65 9 -17.3 9 -19 9 C-19.33 16.59 -19.66 24.18 -20 32 C-17.36 32 -14.72 32 -12 32 C-12 32.66 -12 33.32 -12 34 C-18.15234375 34.09765625 -18.15234375 34.09765625 -20 34 C-22.62527519 31.37472481 -21.18561695 23.78260023 -21.1875 20.25 C-21.19974609 19.05632813 -21.21199219 17.86265625 -21.22460938 16.6328125 C-21.22654297 15.48039062 -21.22847656 14.32796875 -21.23046875 13.140625 C-21.23457764 12.08391602 -21.23868652 11.02720703 -21.24291992 9.93847656 C-20.99332533 6.91925994 -20.27256968 4.73238394 -19 2 C-16.69 2.33 -14.38 2.66 -12 3 C-11.67 3.99 -11.34 4.98 -11 6 C-10.731875 5.030625 -10.46375 4.06125 -10.1875 3.0625 C-9.5996875 1.5465625 -9.5996875 1.5465625 -9 0 C-5.52176885 -1.15941038 -3.54104422 -0.70820884 0 0 Z " fill="#EBBB21" transform="translate(23,7)"/>
<path d="M0 0 C1.47193312 2.94386623 0.84936173 5.37390036 0.5625 8.625 C0.40974609 10.40777344 0.40974609 10.40777344 0.25390625 12.2265625 C0.12822266 13.59941406 0.12822266 13.59941406 0 15 C0.66 15 1.32 15 2 15 C2 15.99 2 16.98 2 18 C2.61875 18.309375 3.2375 18.61875 3.875 18.9375 C8 21 8 21 10 24 C9.625 26.6875 9.625 26.6875 9 29 C10.98 29 12.96 29 15 29 C14.67 29.66 14.34 30.32 14 31 C8.2049271 32.27688047 5.17864216 32.28401698 0 29 C-1 28 -1 28 -1.125 24.5625 C-1 21 -1 21 0 19 C-0.30421875 18.4121875 -0.6084375 17.824375 -0.921875 17.21875 C-2.24523861 14.49530604 -2.2665711 12.51594091 -2.25 9.5 C-2.25515625 8.5615625 -2.2603125 7.623125 -2.265625 6.65625 C-1.99595232 3.95952324 -1.3732259 2.31050707 0 0 Z " fill="#F6C929" transform="translate(179,10)"/>
<path d="M0 0 C2.875 0.3125 2.875 0.3125 6 1 C8.47322522 4.70983783 8.29636889 7.58587785 8.25 11.875 C8.25773438 12.58269531 8.26546875 13.29039063 8.2734375 14.01953125 C8.25815975 18.12160618 7.82216616 21.31228278 6 25 C4.02 25 2.04 25 0 25 C0.16298584 24.42926758 0.32597168 23.85853516 0.49389648 23.27050781 C1.00368519 20.98346733 1.11435968 19.01035544 1.09765625 16.671875 C1.09443359 15.87265625 1.09121094 15.0734375 1.08789062 14.25 C1.07951172 13.425 1.07113281 12.6 1.0625 11.75 C1.05573242 10.48929688 1.05573242 10.48929688 1.04882812 9.203125 C1.03707961 7.13538599 1.01914522 5.06768376 1 3 C0.34 3 -0.32 3 -1 3 C-0.67 2.01 -0.34 1.02 0 0 Z " fill="#FCC704" transform="translate(137,14)"/>
<path d="M0 0 C2.97 0 5.94 0 9 0 C9.66 1.98 10.32 3.96 11 6 C13.64 6 16.28 6 19 6 C18.84402344 6.556875 18.68804687 7.11375 18.52734375 7.6875 C17.14655444 13.10092563 17.05808262 17.49028971 18 23 C18.22370165 24.81066745 18.43172926 26.62333202 18.625 28.4375 C18.72039062 29.28183594 18.81578125 30.12617187 18.9140625 30.99609375 C18.94242188 31.65738281 18.97078125 32.31867187 19 33 C17.1144747 34.8855253 14.42231169 34.13246689 11.91796875 34.13671875 C11.12003906 34.13285156 10.32210937 34.12898438 9.5 34.125 C8.70207031 34.12886719 7.90414062 34.13273437 7.08203125 34.13671875 C1.12660767 34.12660767 1.12660767 34.12660767 0 33 C-0.04063832 31.33382885 -0.042721 29.66611905 0 28 C0.66 28.33 1.32 28.66 2 29 C2 29.99 2 30.98 2 32 C3.98 32 5.96 32 8 32 C8 29.36 8 26.72 8 24 C8.66 24.33 9.32 24.66 10 25 C10 27.31 10 29.62 10 32 C12.64 32 15.28 32 18 32 C17.67 30.9275 17.34 29.855 17 28.75 C16 25 16 25 16 21 C15.34 21 14.68 21 14 21 C14 18.69 14 16.38 14 14 C14.66 14 15.32 14 16 14 C16 12.02 16 10.04 16 8 C14.35 8 12.7 8 11 8 C10.67 8.99 10.34 9.98 10 11 C8 9 8 9 7.8046875 7.0546875 C7.90234375 4.02734375 7.90234375 4.02734375 8 1 C5.69 1 3.38 1 1 1 C1 4.3 1 7.6 1 11 C0.67 11 0.34 11 0 11 C0 7.37 0 3.74 0 0 Z " fill="#F6CB34" transform="translate(147,7)"/>
<path d="M0 0 C1.65 0 3.3 0 5 0 C4.99214478 0.98395752 4.99214478 0.98395752 4.98413086 1.98779297 C4.96338728 4.95018563 4.95034824 7.91256303 4.9375 10.875 C4.92912109 11.90753906 4.92074219 12.94007812 4.91210938 14.00390625 C4.90888672 14.99003906 4.90566406 15.97617187 4.90234375 16.9921875 C4.89448853 18.35899658 4.89448853 18.35899658 4.88647461 19.75341797 C4.85114435 22.03687509 4.85114435 22.03687509 6 24 C3.6875 24.3125 3.6875 24.3125 1 24 C-2.11201116 20.06942667 -2.38147523 16.92376995 -2.3125 12 C-2.30863281 10.80375 -2.30476563 9.6075 -2.30078125 8.375 C-2.01433439 5.16084307 -1.37603259 2.89460241 0 0 Z " fill="#FDC704" transform="translate(129,15)"/>
<path d="M0 0 C1.134375 0.020625 2.26875 0.04125 3.4375 0.0625 C3.1075 0.7225 2.7775 1.3825 2.4375 2.0625 C2.36633618 4.43652501 2.35340915 6.81250677 2.375 9.1875 C2.38402344 10.46882813 2.39304688 11.75015625 2.40234375 13.0703125 C2.41394531 14.05773438 2.42554688 15.04515625 2.4375 16.0625 C3.0975 16.0625 3.7575 16.0625 4.4375 16.0625 C3.7775 18.3725 3.1175 20.6825 2.4375 23.0625 C-0.0625 21.75 -0.0625 21.75 -2.5625 20.0625 C-2.5625 19.0725 -2.5625 18.0825 -2.5625 17.0625 C-3.2225 17.0625 -3.8825 17.0625 -4.5625 17.0625 C-4.58934679 14.41659986 -4.60926357 11.77096904 -4.625 9.125 C-4.63337891 8.37025391 -4.64175781 7.61550781 -4.65039062 6.83789062 C-4.65902441 4.91255687 -4.61474333 2.98714419 -4.5625 1.0625 C-3.5625 0.0625 -3.5625 0.0625 0 0 Z " fill="#FCC705" transform="translate(183.5625,7.9375)"/>
<path d="M0 0 C0.7425 0.556875 1.485 1.11375 2.25 1.6875 C2.78109375 2.04328125 3.3121875 2.3990625 3.859375 2.765625 C6.1301948 5.90394899 5.76252131 9.39678029 5.75 13.125 C5.77835938 13.88876953 5.80671875 14.65253906 5.8359375 15.43945312 C5.84360519 17.64199588 5.77599661 19.54729558 5.25 21.6875 C2.71875 24.22265625 2.71875 24.22265625 0.25 25.6875 C0.25 24.0375 0.25 22.3875 0.25 20.6875 C0.91 20.6875 1.57 20.6875 2.25 20.6875 C2.10913398 18.08297729 1.96251536 15.47899803 1.8125 12.875 C1.77318359 12.13701172 1.73386719 11.39902344 1.69335938 10.63867188 C1.50618965 7.45678658 1.26279207 4.72587622 0.25 1.6875 C-1.73 1.6875 -3.71 1.6875 -5.75 1.6875 C-6.75344253 7.99485307 -7.25873071 14.32190427 -7.75 20.6875 C-8.08 20.6875 -8.41 20.6875 -8.75 20.6875 C-8.75 14.4175 -8.75 8.1475 -8.75 1.6875 C-10.4 1.6875 -12.05 1.6875 -13.75 1.6875 C-11.33182678 -3.14884644 -4.1390873 -1.97547348 0 0 Z " fill="#F8D12E" transform="translate(142.75,13.3125)"/>
<path d="M0 0 C3.375 2 3.375 2 6 4 C5.34 4.66 4.68 5.32 4 6 C4 5.34 4 4.68 4 4 C2.68 4 1.36 4 0 4 C-0.66 6.31 -1.32 8.62 -2 11 C-2.99 11 -3.98 11 -5 11 C-5 9.02 -5 7.04 -5 5 C-4.01 5 -3.02 5 -2 5 C-2 4.34 -2 3.68 -2 3 C-4.31 3 -6.62 3 -9 3 C-9 3.66 -9 4.32 -9 5 C-9.66 5 -10.32 5 -11 5 C-11 10.61 -11 16.22 -11 22 C-11.66 22 -12.32 22 -13 22 C-13.10812003 19.24894578 -13.18734945 16.50214913 -13.25 13.75 C-13.28351562 12.97269531 -13.31703125 12.19539063 -13.3515625 11.39453125 C-13.45040761 5.61209239 -13.45040761 5.61209239 -11.171875 2.515625 C-7.48979174 -0.05388634 -4.39997488 -0.43137009 0 0 Z " fill="#F4C625" transform="translate(36,12)"/>
<path d="M0 0 C4.875 1.75 4.875 1.75 6 4 C6.28978025 7.09725123 6.27782438 10.20325265 6.3125 13.3125 C6.34150391 14.16779297 6.37050781 15.02308594 6.40039062 15.90429688 C6.44204972 20.0413651 6.34555529 22.40500414 4.23046875 26.046875 C0.96131204 28.90953412 -1.74946538 29.19162246 -6 29 C-8.5 28.0625 -8.5 28.0625 -10 27 C-7.28795669 25.64397835 -4.93194618 26.06974548 -1.97265625 26.2578125 C0.66963658 25.91248314 1.35848432 25.06910634 3 23 C3.50155022 20.7856493 3.50155022 20.7856493 3.51171875 18.33203125 C3.54716797 17.43935547 3.58261719 16.54667969 3.61914062 15.62695312 C3.65297852 14.23379883 3.65297852 14.23379883 3.6875 12.8125 C3.72166016 11.87212891 3.75582031 10.93175781 3.79101562 9.96289062 C3.87348218 7.64204607 3.94263403 5.32157852 4 3 C2.68 2.67 1.36 2.34 0 2 C0 1.34 0 0.68 0 0 Z " fill="#EEC534" transform="translate(67,13)"/>
<path d="M0 0 C2.97 0 5.94 0 9 0 C9.9191789 7.45632433 10.00818204 14.56650141 9.625 22.0625 C9.58117188 23.10599609 9.53734375 24.14949219 9.4921875 25.22460938 C9.13375235 32.86624765 9.13375235 32.86624765 8 34 C4.5 34.125 4.5 34.125 1 34 C0 33 0 33 -0.0625 30.4375 C-0.041875 29.633125 -0.02125 28.82875 0 28 C0.66 28 1.32 28 2 28 C2 29.32 2 30.64 2 32 C3.98 32 5.96 32 8 32 C8 21.77 8 11.54 8 1 C5.69 1 3.38 1 1 1 C1 4.3 1 7.6 1 11 C0.67 11 0.34 11 0 11 C0 7.37 0 3.74 0 0 Z " fill="#F3C93D" transform="translate(43,7)"/>
<path d="M0 0 C2.9375 0.75 2.9375 0.75 6 2 C7.5924178 5.07867442 6.81627167 7.73491331 6 11 C3.75 11.6875 3.75 11.6875 1 12 C-1.3125 10.5625 -1.3125 10.5625 -3 9 C-2.01 6.03 -1.02 3.06 0 0 Z " fill="#FCC704" transform="translate(36,15)"/>
<path d="M0 0 C1.47193312 2.94386623 0.84936173 5.37390036 0.5625 8.625 C0.40974609 10.40777344 0.40974609 10.40777344 0.25390625 12.2265625 C0.12822266 13.59941406 0.12822266 13.59941406 0 15 C0.66 15 1.32 15 2 15 C2 15.99 2 16.98 2 18 C2.61875 18.309375 3.2375 18.61875 3.875 18.9375 C7.77263016 20.88631508 8.50061215 21.82313386 10 26 C8.68 25.67 7.36 25.34 6 25 C6 24.01 6 23.02 6 22 C4.02 22 2.04 22 0 22 C0 23.98 0 25.96 0 28 C-0.33 28 -0.66 28 -1 28 C-1.125 21.25 -1.125 21.25 0 19 C-0.30421875 18.4121875 -0.6084375 17.824375 -0.921875 17.21875 C-2.24523861 14.49530604 -2.2665711 12.51594091 -2.25 9.5 C-2.25515625 8.5615625 -2.2603125 7.623125 -2.265625 6.65625 C-1.99595232 3.95952324 -1.3732259 2.31050707 0 0 Z " fill="#F1C83A" transform="translate(179,10)"/>
<path d="M0 0 C-0.33 2.64 -0.66 5.28 -1 8 C-1.33 8 -1.66 8 -2 8 C-2 5.69 -2 3.38 -2 1 C-3.96485945 1.20655634 -3.96485945 1.20655634 -6 2 C-7.0624155 3.71248796 -7.0624155 3.71248796 -7.625 5.8125 C-7.86089844 6.53050781 -8.09679687 7.24851562 -8.33984375 7.98828125 C-8.66662109 8.98408203 -8.66662109 8.98408203 -9 10 C-9.63960014 11.3465266 -10.289999 12.68922893 -11 14 C-11.66 14 -12.32 14 -13 14 C-13 11.03 -13 8.06 -13 5 C-12.01 5.495 -12.01 5.495 -11 6 C-10.731875 5.030625 -10.46375 4.06125 -10.1875 3.0625 C-9.5996875 1.5465625 -9.5996875 1.5465625 -9 0 C-5.52176885 -1.15941038 -3.54104422 -0.70820884 0 0 Z " fill="#F4C722" transform="translate(23,7)"/>
<path d="M0 0 C0.66 0 1.32 0 2 0 C3.29925791 4.33085971 4.343621 8.51474352 5 13 C7.97 13 10.94 13 14 13 C13.67 13.66 13.34 14.32 13 15 C3.99041534 15.30031949 3.99041534 15.30031949 1 13 C-0.97706077 9.86965379 -1.15875722 7.87954906 -0.625 4.25 C-0.51414062 3.45078125 -0.40328125 2.6515625 -0.2890625 1.828125 C-0.19367187 1.22484375 -0.09828125 0.6215625 0 0 Z " fill="#F4C521" transform="translate(10,26)"/>
<path d="M0 0 C2.97 0 5.94 0 9 0 C9.66 1.98 10.32 3.96 11 6 C13.64 6 16.28 6 19 6 C18.34 8.97 17.68 11.94 17 15 C16.67 15 16.34 15 16 15 C16 12.69 16 10.38 16 8 C14.35 8 12.7 8 11 8 C10.67 8.99 10.34 9.98 10 11 C8 9 8 9 7.8046875 7.0546875 C7.90234375 4.02734375 7.90234375 4.02734375 8 1 C5.69 1 3.38 1 1 1 C1 4.3 1 7.6 1 11 C0.67 11 0.34 11 0 11 C0 7.37 0 3.74 0 0 Z " fill="#F0D150" transform="translate(147,7)"/>
<path d="M0 0 C0.99 0.33 1.98 0.66 3 1 C2.34 5.95 1.68 10.9 1 16 C1.66 16.33 2.32 16.66 3 17 C2.01 17.33 1.02 17.66 0 18 C-1.07427471 14.77717587 -1.1332963 12.38488847 -1.125 9 C-1.12757812 7.948125 -1.13015625 6.89625 -1.1328125 5.8125 C-1 3 -1 3 0 0 Z " fill="#F9CE26" transform="translate(113,18)"/>
<path d="M0 0 C1.98 0 3.96 0 6 0 C6.6875 1.8125 6.6875 1.8125 7 4 C5.8125 5.8125 5.8125 5.8125 4 7 C1.8125 6.6875 1.8125 6.6875 0 6 C0 4.02 0 2.04 0 0 Z " fill="#FBC708" transform="translate(179,32)"/>
<path d="M0 0 C2.31 0 4.62 0 7 0 C7.22786458 2.05078125 7.45572917 4.1015625 7.68359375 6.15234375 C7.81886614 8.01140229 7.81886614 8.01140229 9 9 C9.04063832 10.66617115 9.042721 12.33388095 9 14 C8.34 14 7.68 14 7 14 C5.78306124 11.56612247 5.68040104 9.58161154 5.4375 6.875 C5.35371094 5.96492187 5.26992187 5.05484375 5.18359375 4.1171875 C5.12300781 3.41851562 5.06242188 2.71984375 5 2 C3.68 1.67 2.36 1.34 1 1 C1 3.64 1 6.28 1 9 C0.67 9 0.34 9 0 9 C0 6.03 0 3.06 0 0 Z " fill="#F9CA1B" transform="translate(148,8)"/>
<path d="M0 0 C0.66 0 1.32 0 2 0 C1.90460937 0.61746094 1.80921875 1.23492188 1.7109375 1.87109375 C0.90278933 8.04496988 1.25467852 13.02840419 3 19 C-0.70030952 16.53312699 -0.95803768 15.24800022 -2 11 C-2.2947685 6.72585673 -2.34402262 3.66253535 0 0 Z " fill="#E9BD2A" transform="translate(19,15)"/>
<path d="M0 0 C-0.33 0.66 -0.66 1.32 -1 2 C-0.34 2.33 0.32 2.66 1 3 C1 3.66 1 4.32 1 5 C2.32 5.33 3.64 5.66 5 6 C-3.86956522 5.26086957 -3.86956522 5.26086957 -7 2 C-7 1.34 -7 0.68 -7 0 C-4.3333581 -1.33332095 -2.83319697 -0.67102033 0 0 Z " fill="#F3C521" transform="translate(31,36)"/>
<path d="M0 0 C0.66 0 1.32 0 2 0 C1.67 2.31 1.34 4.62 1 7 C-1.64 7 -4.28 7 -7 7 C-7 6.34 -7 5.68 -7 5 C-5.35 5 -3.7 5 -2 5 C-1.34 3.35 -0.68 1.7 0 0 Z " fill="#F7CC34" transform="translate(113,38)"/>
<path d="M0 0 C1.32 0.99 2.64 1.98 4 3 C3.5359375 4.485 3.5359375 4.485 3.0625 6 C1.91566793 9.97731122 1.43287644 13.88767379 1 18 C0.67 18 0.34 18 0 18 C0 12.06 0 6.12 0 0 Z " fill="#FCD50D" transform="translate(81,20)"/>
<path d="M0 0 C0.99 0.495 0.99 0.495 2 1 C2 1.99 2 2.98 2 4 C3.98 4 5.96 4 8 4 C8 4.66 8 5.32 8 6 C5.66705225 6.04241723 3.33297433 6.04092937 1 6 C0 5 0 5 -0.0625 2.4375 C-0.041875 1.633125 -0.02125 0.82875 0 0 Z " fill="#ECC83D" transform="translate(147,35)"/>
<path d="M0 0 C1.2065625 0.0309375 1.2065625 0.0309375 2.4375 0.0625 C2.25 2.4375 2.25 2.4375 1.4375 5.0625 C-1.125 6.375 -1.125 6.375 -3.5625 7.0625 C-3.5625 6.4025 -3.5625 5.7425 -3.5625 5.0625 C-2.5725 5.0625 -1.5825 5.0625 -0.5625 5.0625 C-0.5625 4.0725 -0.5625 3.0825 -0.5625 2.0625 C-1.5525 1.7325 -2.5425 1.4025 -3.5625 1.0625 C-2.5625 0.0625 -2.5625 0.0625 0 0 Z " fill="#F1C220" transform="translate(39.5625,33.9375)"/>
<path d="M0 0 C0.33 0 0.66 0 1 0 C0.67 3.63 0.34 7.26 0 11 C-2 8 -2 8 -1.6875 4.375 C-1 1 -1 1 0 0 Z " fill="#E0AA13" transform="translate(4,10)"/>
<path d="M0 0 C0.33 0.66 0.66 1.32 1 2 C-0.36125 1.9690625 -0.36125 1.9690625 -1.75 1.9375 C-4.42672588 1.9889755 -6.46988052 2.2215017 -9 3 C-8.67 2.01 -8.34 1.02 -8 0 C-4.69693408 -1.10102197 -3.28414305 -0.95067299 0 0 Z " fill="#F3C532" transform="translate(123,13)"/>
<path d="M0 0 C0.66 0.33 1.32 0.66 2 1 C1.01 3.64 0.02 6.28 -1 9 C-1.99 8.67 -2.98 8.34 -4 8 C-3.67 7.01 -3.34 6.02 -3 5 C-2.67 5.33 -2.34 5.66 -2 6 C-1.34 4.02 -0.68 2.04 0 0 Z " fill="#E8BD3E" transform="translate(14,7)"/>
<path d="M0 0 C1.32 0 2.64 0 4 0 C3.67 1.32 3.34 2.64 3 4 C2.34 4 1.68 4 1 4 C0.67 4.66 0.34 5.32 0 6 C0 4.02 0 2.04 0 0 Z " fill="#FCCA18" transform="translate(82,18)"/>
</svg>
